<svg width="26" height="26" viewBox="0 0 26 26" fill="none" xmlns="http://www.w3.org/2000/svg">
<path d="M25.5543 2.08572C25.5543 1.35712 24.8818 0.68457 24.1532 0.68457H1.79076C1.06216 0.68457 0.445648 1.35712 0.445648 2.08572V24.4482C0.445648 25.1768 1.06216 25.7933 1.79076 25.7933H13.8407V16.0973H10.534V12.2861H13.8407V9.48382C13.8407 6.28919 15.8023 4.49571 18.7167 4.49571C20.0618 4.49571 21.2948 4.6078 21.6311 4.66385V8.02662H19.6134C18.0442 8.02662 17.7639 8.81127 17.7639 9.87615V12.2861H21.519L21.0146 16.0973H17.7639V25.7933H24.1532C24.8818 25.7933 25.5543 25.1768 25.5543 24.4482V2.08572Z" fill="#0699A6"/>
</svg>
