<svg width="26" height="26" viewBox="0 0 26 26" fill="none" xmlns="http://www.w3.org/2000/svg">
<path d="M12.5869 6.79361C8.99999 6.79361 6.14164 9.70801 6.14164 13.2389C6.14164 16.8259 8.99999 19.6842 12.5869 19.6842C16.1179 19.6842 19.0323 16.8259 19.0323 13.2389C19.0323 9.70801 16.1179 6.79361 12.5869 6.79361ZM12.5869 17.4424C10.2891 17.4424 8.38348 15.5929 8.38348 13.2389C8.38348 10.941 10.233 9.0915 12.5869 9.0915C14.8848 9.0915 16.7344 10.941 16.7344 13.2389C16.7344 15.5929 14.8848 17.4424 12.5869 17.4424ZM20.7697 6.56942C20.7697 5.72873 20.0971 5.05617 19.2564 5.05617C18.4158 5.05617 17.7432 5.72873 17.7432 6.56942C17.7432 7.41011 18.4158 8.08267 19.2564 8.08267C20.0971 8.08267 20.7697 7.41011 20.7697 6.56942ZM25.0292 8.08267C24.9171 6.06501 24.4687 4.27153 23.0115 2.81433C21.5543 1.35712 19.7609 0.908755 17.7432 0.796662C15.6695 0.68457 9.44836 0.68457 7.37465 0.796662C5.35699 0.908755 3.61956 1.35712 2.10631 2.81433C0.649109 4.27153 0.200739 6.06501 0.0886469 8.08267C-0.0234455 10.1564 -0.0234455 16.3775 0.0886469 18.4512C0.200739 20.4689 0.649109 22.2063 2.10631 23.7196C3.61956 25.1768 5.35699 25.6251 7.37465 25.7372C9.44836 25.8493 15.6695 25.8493 17.7432 25.7372C19.7609 25.6251 21.5543 25.1768 23.0115 23.7196C24.4687 22.2063 24.9171 20.4689 25.0292 18.4512C25.1413 16.3775 25.1413 10.1564 25.0292 8.08267ZM22.339 20.637C21.9467 21.7579 21.0499 22.5986 19.985 23.047C18.3037 23.7196 14.3804 23.5514 12.5869 23.5514C10.7374 23.5514 6.81419 23.7196 5.18885 23.047C4.06793 22.5986 3.22723 21.7579 2.77886 20.637C2.10631 19.0117 2.27445 15.0884 2.27445 13.2389C2.27445 11.4454 2.10631 7.52221 2.77886 5.84082C3.22723 4.77594 4.06793 3.93525 5.18885 3.48688C6.81419 2.81433 10.7374 2.98246 12.5869 2.98246C14.3804 2.98246 18.3037 2.81433 19.985 3.48688C21.0499 3.8792 21.8906 4.77594 22.339 5.84082C23.0115 7.52221 22.8434 11.4454 22.8434 13.2389C22.8434 15.0884 23.0115 19.0117 22.339 20.637Z" fill="#0699A6"/>
</svg>
