<svg width="26" height="26" viewBox="0 0 26 26" fill="none" xmlns="http://www.w3.org/2000/svg">
<path d="M13.1413 6.10909C9.55437 6.10909 6.69602 9.02349 6.69602 12.5544C6.69602 16.1414 9.55437 18.9997 13.1413 18.9997C16.6722 18.9997 19.5866 16.1414 19.5866 12.5544C19.5866 9.02349 16.6722 6.10909 13.1413 6.10909ZM13.1413 16.7579C10.8434 16.7579 8.93787 14.9083 8.93787 12.5544C8.93787 10.2565 10.7874 8.40698 13.1413 8.40698C15.4392 8.40698 17.2887 10.2565 17.2887 12.5544C17.2887 14.9083 15.4392 16.7579 13.1413 16.7579ZM21.3241 5.8849C21.3241 5.04421 20.6515 4.37166 19.8108 4.37166C18.9701 4.37166 18.2976 5.04421 18.2976 5.8849C18.2976 6.7256 18.9701 7.39815 19.8108 7.39815C20.6515 7.39815 21.3241 6.7256 21.3241 5.8849ZM25.5836 7.39815C25.4715 5.38049 25.0231 3.58701 23.5659 2.12981C22.1087 0.672607 20.3152 0.224238 18.2976 0.112145C16.2239 5.30779e-05 10.0027 5.30779e-05 7.92903 0.112145C5.91137 0.224238 4.17394 0.672607 2.66069 2.12981C1.20349 3.58701 0.755122 5.38049 0.643029 7.39815C0.530937 9.47186 0.530937 15.693 0.643029 17.7667C0.755122 19.7844 1.20349 21.5218 2.66069 23.035C4.17394 24.4922 5.91137 24.9406 7.92903 25.0527C10.0027 25.1648 16.2239 25.1648 18.2976 25.0527C20.3152 24.9406 22.1087 24.4922 23.5659 23.035C25.0231 21.5218 25.4715 19.7844 25.5836 17.7667C25.6957 15.693 25.6957 9.47186 25.5836 7.39815ZM22.8934 19.9525C22.501 21.0734 21.6043 21.9141 20.5394 22.3625C18.858 23.035 14.9348 22.8669 13.1413 22.8669C11.2918 22.8669 7.36857 23.035 5.74323 22.3625C4.62231 21.9141 3.78162 21.0734 3.33325 19.9525C2.66069 18.3272 2.82883 14.4039 2.82883 12.5544C2.82883 10.7609 2.66069 6.83769 3.33325 5.1563C3.78162 4.09143 4.62231 3.25073 5.74323 2.80236C7.36857 2.12981 11.2918 2.29795 13.1413 2.29795C14.9348 2.29795 18.858 2.12981 20.5394 2.80236C21.6043 3.19469 22.445 4.09143 22.8934 5.1563C23.5659 6.83769 23.3978 10.7609 23.3978 12.5544C23.3978 14.4039 23.5659 18.3272 22.8934 19.9525Z" fill="#A66606"/>
</svg>
