<svg width="26" height="26" viewBox="0 0 26 26" fill="none" xmlns="http://www.w3.org/2000/svg">
<path d="M23.3478 0.68457H1.77002C0.817239 0.68457 0.0325928 1.52526 0.0325928 2.53409V23.9998C0.0325928 25.0086 0.817239 25.7933 1.77002 25.7933H23.3478C24.3006 25.7933 25.1413 25.0086 25.1413 23.9998V2.53409C25.1413 1.52526 24.3006 0.68457 23.3478 0.68457ZM7.59883 22.2063H3.89978V10.2685H7.59883V22.2063ZM5.7493 8.58708C4.51629 8.58708 3.5635 7.6343 3.5635 6.45733C3.5635 5.28036 4.51629 4.27153 5.7493 4.27153C6.92627 4.27153 7.87906 5.28036 7.87906 6.45733C7.87906 7.6343 6.92627 8.58708 5.7493 8.58708ZM21.5543 22.2063H17.7992V16.3775C17.7992 15.0324 17.7992 13.2389 15.8937 13.2389C13.932 13.2389 13.6518 14.7522 13.6518 16.3215V22.2063H9.95277V10.2685H13.4837V11.8938H13.5397C14.0441 10.941 15.2772 9.93219 17.0706 9.93219C20.8257 9.93219 21.5543 12.4543 21.5543 15.6489V22.2063Z" fill="#0699A6"/>
</svg>
