<svg width="30" height="24" viewBox="0 0 30 24" fill="none" xmlns="http://www.w3.org/2000/svg">
<path d="M26.4924 6.41011C27.6133 5.56942 28.6221 4.56059 29.4068 3.38362C28.3979 3.83199 27.221 4.16827 26.044 4.28036C27.277 3.55176 28.1737 2.43083 28.6221 1.02968C27.5012 1.70223 26.2121 2.20665 24.9231 2.48688C23.8021 1.30991 22.2889 0.637356 20.6075 0.637356C17.3568 0.637356 14.7227 3.27153 14.7227 6.52221C14.7227 6.97058 14.7787 7.41895 14.8908 7.86731C10.0148 7.58708 5.64317 5.23314 2.72877 1.70223C2.22435 2.54293 1.94412 3.55176 1.94412 4.67268C1.94412 6.69035 2.95295 8.48382 4.57829 9.5487C3.62551 9.49265 2.67272 9.26847 1.88807 8.8201V8.87615C1.88807 11.7345 3.90574 14.0884 6.59596 14.6489C6.14759 14.761 5.58712 14.8731 5.08271 14.8731C4.69038 14.8731 4.35411 14.817 3.96178 14.761C4.69038 17.1149 6.87619 18.7963 9.45431 18.8524C7.43665 20.4217 4.91457 21.3744 2.16831 21.3744C1.66389 21.3744 1.21552 21.3184 0.767151 21.2624C3.34528 22.9437 6.42782 23.8965 9.79059 23.8965C20.6075 23.8965 26.4924 14.9852 26.4924 7.19476C26.4924 6.91453 26.4924 6.69034 26.4924 6.41011Z" fill="#0699A6"/>
</svg>
